<svg viewBox="0 0 1039.9999999999998 1039.9999999999998" xmlns="http://www.w3.org/2000/svg" overflow="visible" xmlns:xlink="http://www.w3.org/1999/xlink" width="1039.9999999999998px" height="1039.9999999999998px"><g id="Master/Composition/Mono Comp" stroke="none" stroke-width="1" fill="none" fill-rule="evenodd"><g id="Mono/Bottom" fill="#03161a" transform="scale(1 1)"><g id="Mono/Bottom/Dreamer" stroke="none" stroke-width="1" fill="none" fill-rule="evenodd"><g id="Ink" transform="translate(0.000000, 321.000000)" fill="#03161a"><path d="M401.2371,295.2467 C396.3211,155.8767 392.4891,265.8297 197.8861,288.8457 C190.3031,286.7427 173.7381,316.0327 184.3501,317.5277 C189.2231,319.4247 189.9041,322.5327 189.6971,326.7787 C185.0441,362.6117 198.7071,380.2647 214.2071,337.1757 C218.3831,330.1687 225.0291,303.0247 234.5691,318.6907 C234.5791,333.7077 228.7141,349.7897 220.8711,362.6107 C210.6751,379.4107 178.6171,380.2947 177.1471,357.1177 C175.9301,347.2187 178.5831,335.1647 175.7331,326.2947 C158.7891,360.6907 148.5731,401.5447 140.8771,439.8587 C134.2581,492.7097 130.2161,584.5317 194.4041,601.4667 C262.2481,614.9137 313.3741,555.2447 347.9521,504.9127 C393.1701,441.7577 397.8771,370.0567 401.2371,295.2467 M442.8941,310.3397 C444.1231,362.6627 443.6541,416.5807 442.8071,469.1267 C442.6191,496.5457 431.6121,522.1947 429.2061,549.3777 C429.2581,556.2447 422.9861,559.7197 422.8511,566.0787 C405.7301,620.0477 380.9691,678.3957 330.1171,708.1437 C307.8281,722.4817 264.7731,724.4477 258.2511,692.1527 C246.9751,669.1217 284.2711,606.6007 269.0701,607.4347 C252.6741,613.3437 236.0911,619.5307 218.3301,618.2307 C177.0271,627.4917 157.6681,593.6537 146.9691,599.9637 C121.7111,627.2507 90.8791,648.3757 65.8351,675.8187 C48.9001,692.9647 33.0691,715.5007 7.0891,698.5997 C-20.8049,671.5537 41.7241,524.2007 54.8681,486.7577 C89.1861,407.9157 126.2581,328.2217 178.5351,260.4767 C231.9281,202.5437 332.0001,127.0537 405.7601,192.0437 C427.8301,226.2997 443.7711,269.0077 442.8941,310.3397" id="Fill-1"/><path d="M130.8504,29.5368 C96.2644,45.5628 62.9284,76.2658 69.0214,116.6698 C70.6394,126.2538 75.4164,133.6398 85.5104,136.1388 C94.3544,136.9778 106.2074,144.3458 113.1164,135.8798 C116.6334,130.3698 127.5964,125.8558 131.0534,133.6828 C137.7574,149.9168 120.7834,148.1628 119.0144,157.8338 C117.5304,185.6838 142.9594,208.3548 170.1244,196.7598 C194.5924,187.6398 220.3834,175.3878 233.8794,151.9488 C236.7814,146.2758 243.3144,134.6938 235.4794,130.6148 C226.0884,126.6478 216.0824,122.1068 213.7944,111.1898 C210.8594,102.9608 220.3484,95.4648 227.4424,100.3418 C237.4214,104.3908 242.6304,122.9448 254.5454,118.8478 C277.7154,110.4238 279.5614,78.9378 274.2144,58.5018 C272.2114,50.5678 264.4604,48.3468 257.3304,46.9288 C246.7674,43.3368 246.0434,62.8598 234.2114,56.7968 C223.7674,54.6538 207.7014,35.2718 225.3654,31.2098 C227.2874,30.8018 230.2774,32.1078 230.6734,29.1508 C217.3124,6.3288 186.6374,11.1448 166.8604,22.6068 C152.8244,26.8018 137.0034,34.5108 131.0824,48.6538 C121.9774,61.5098 129.1924,34.8278 130.8504,29.5368 M53.2674,106.3538 C55.5344,52.2688 108.5474,19.9818 156.9354,13.0678 C179.0974,0.8688 209.2754,-8.0902 230.1624,11.2488 C235.6104,16.0708 240.8444,21.0218 244.5444,27.3998 C267.5044,45.8848 284.4954,27.7568 288.8594,75.7228 C291.0774,98.5318 280.8514,126.6808 255.8414,131.2908 C251.9654,132.0348 250.2824,133.9348 249.7094,137.6598 C246.0854,187.1658 142.1104,246.7558 116.3264,186.4428 C105.1224,173.8168 110.6114,151.4098 100.8064,153.2538 C75.4764,152.1968 50.1174,133.7608 53.2674,106.3538" id="Fill-4"/><path d="M579.674465,391.938869 C570.431465,394.720869 564.931465,393.102869 565.092465,404.726869 C560.093465,408.542869 560.179465,397.814869 555.358465,400.727869 C538.788465,410.192869 525.576465,422.822869 519.211465,441.261869 C513.221465,464.692869 500.956465,500.438869 524.570465,517.368869 C538.839465,528.972869 578.645465,537.000869 581.963465,511.987869 C578.501465,501.915869 593.676465,505.241869 595.479465,511.173869 C597.896465,518.077869 604.459465,518.359869 610.789465,518.390869 C642.634465,519.320869 668.242465,483.669869 661.852465,453.496869 C660.381465,444.048869 624.177465,463.621869 613.988465,435.993869 C611.667465,420.193869 635.202465,426.076869 644.617465,427.751869 C655.544465,430.980869 657.377465,429.272869 656.019465,417.849869 C650.144465,376.025869 623.291465,356.326869 583.117465,374.808869 C579.064465,376.367869 565.008465,385.285869 573.485465,388.640869 C575.883465,389.077869 578.768465,388.389869 579.674465,391.938869 M499.226465,486.025869 C500.724465,458.706869 505.360465,428.169869 527.435465,409.567869 C535.864465,399.027869 552.778465,397.363869 558.821465,385.847869 C571.180465,349.845869 636.201465,345.540869 655.047465,377.695869 C659.928465,386.984869 664.185465,396.698869 667.647465,406.597869 C673.372465,417.507869 665.827465,430.035869 670.716465,440.676869 C676.793465,450.422869 677.364465,461.034869 675.835465,472.209869 C671.726465,508.585869 633.560465,540.243869 597.391465,526.142869 C587.198465,524.157869 580.809465,538.516869 569.425465,537.938869 C536.695465,545.243869 495.580465,523.157869 499.226465,486.025869" id="Fill-6"/><path d="M262.1964,465.5812 C254.7254,465.8422 215.8944,456.2432 238.3674,449.0282 C250.4164,442.9722 277.7314,459.9172 283.0444,446.4722 C274.0334,415.6472 267.6204,383.3062 269.8674,351.1342 C270.1604,347.0392 273.6274,347.2742 277.1774,346.8712 C285.2694,347.2052 282.7884,361.4192 284.9304,367.2962 C286.7744,392.6352 289.1684,417.8242 295.8174,442.4382 C300.7074,462.3632 277.9984,464.1402 262.1964,465.5812" id="Fill-8"/><path d="M314.5381,350.9396 C314.1781,346.6786 313.7771,332.4616 320.9191,338.3146 C322.3881,347.3136 328.5581,393.3826 340.9711,368.7056 C346.1681,360.4896 345.9381,303.1666 359.5491,336.0356 C365.6391,382.7516 318.0811,415.3426 314.5571,350.9396 C314.5501,350.9396 314.5441,350.9396 314.5381,350.9396" id="Fill-10"/><path d="M236.0794,538.4201 C221.4244,545.3451 185.4494,499.8981 208.9784,498.3121 C220.3234,508.6181 227.5314,529.8561 246.9074,519.8241 C269.7884,513.7341 251.0554,544.3411 236.0794,538.4201" id="Fill-12"/></g></g></g><g id="Mono/Top" fill="#03161a" transform="scale(1 1)"><g id="Mono/Top/Pointing" stroke="none" stroke-width="1" fill="none" fill-rule="evenodd"><g id="Ink" transform="translate(179.000000, 1.000000)" fill="#03161a"><path d="M597.472234,436.105247 C597.697338,428.580861 595.203614,423.241163 587.710717,420.512062 C581.907269,419.776402 572.68389,407.868559 568.342441,414.951783 C564.580166,432.966664 533.398648,450.802029 538.053131,466.500811 C542.452028,475.596249 550.444372,479.044584 560.059338,475.497692 C576.570441,468.902561 598.282372,456.42332 597.472234,436.105247 M483.504234,441.00261 L483.737545,441.00261 C476.545959,483.329484 526.096855,437.190552 535.58989,424.117619 C553.153821,402.077139 557.693407,357.125589 521.080097,391.572566 C512.730166,413.113219 478.325683,415.032741 483.504234,441.00261 M434.382441,392.39505 C429.249614,427.134179 484.125614,399.297587 497.0972,388.365931 C504.885545,380.082418 537.092924,347.592509 516.777338,341.395128 C493.243476,342.051004 471.494028,353.037804 450.1772,361.871596 C435.938234,366.990713 434.601683,379.589631 434.382441,392.39505 M433.309683,240.024172 C436.081269,262.492907 433.9932,298.930978 460.145062,310.570135 C464.235614,312.3911 467.519545,310.463364 467.2792,306.027109 C468.057683,282.484802 459.434579,257.825512 462.41251,234.925001 C468.57589,224.484959 480.073752,224.849856 486.674441,234.851083 C493.204786,245.437788 550.433821,282.383898 517.090372,286.220596 C470.682717,258.467308 494.217752,271.100252 484.057614,310.10316 C476.568234,334.822289 445.155752,328.941699 433.368303,310.787196 C424.523614,305.452191 421.982993,271.257474 413.872234,277.219022 C386.695683,305.087294 357.678441,331.073589 333.648648,361.808238 C317.812855,381.617097 303.068579,404.217242 301.025062,430.133139 C311.352855,442.152446 353.268993,399.269427 365.921683,392.790453 C412.730303,364.444648 456.346441,326.446085 513.229614,322.118947 C547.561407,320.754397 534.76451,348.467793 544.518993,355.365636 C596.664441,361.22276 566.424372,385.683762 579.734786,392.26716 C593.128441,391.850638 608.224441,395.29428 616.391476,406.681177 C620.61451,424.277189 631.202579,409.884292 640.796441,405.216896 C664.642166,391.569046 679.33251,381.700402 668.969545,351.679121 C663.193062,333.763971 651.147683,306.989217 671.082234,295.985989 C694.917407,277.829139 718.742028,258.930762 737.147752,235.025905 C742.642855,208.570289 684.307062,187.355814 670.342441,165.975903 C655.806855,149.770254 641.039131,133.752334 621.80451,123.205521 C617.883959,120.641856 616.086648,121.107657 612.805062,125.118004 C589.13989,152.012434 562.680855,176.369013 537.928855,202.172273 C508.0792,225.231179 429.495821,145.226055 433.309683,240.024172 M719.742097,64.2412237 C718.919062,83.3320222 734.536786,103.118589 699.9412,100.838863 C674.506855,98.5028185 656.857338,80.7296382 659.191614,119.127123 C665.3632,132.627137 681.490924,141.628711 690.468097,154.180697 C692.804717,156.379465 695.441476,154.857692 695.374648,151.795374 C692.349821,68.6915585 751.967062,146.30784 753.028097,123.171495 C751.31989,103.179601 766.224786,70.0209098 788.4772,90.5736429 C791.988579,92.6492143 797.399269,103.512819 801.270579,97.69324 C804.133614,85.2433314 802.498097,57.1732518 822.840648,64.75513 C826.442303,66.2158911 829.04389,69.7299309 833.499062,69.63724 C850.053545,73.9397389 839.342372,95.1319215 823.9732,83.9515258 C807.057614,77.8879005 823.137269,142.261121 777.818786,103.34621 C753.397407,108.394929 792.522028,164.639512 719.744441,134.830598 C709.1892,135.629617 716.317476,158.044381 711.930303,165.530048 C704.061062,173.595327 728.965476,194.764043 731.73589,186.779722 C730.589269,169.976863 736.641269,150.487142 757.384786,159.687004 C767.272924,161.374212 786.002234,187.225577 788.813683,166.935664 C792.444648,154.835399 792.565407,122.517966 812.089614,131.00798 C824.560579,139.855851 825.751752,141.979528 830.32651,125.791479 C832.157821,122.280959 836.670441,121.992327 839.392786,124.686228 C850.039476,133.599804 844.13989,148.05958 842.271062,159.658844 C823.338924,188.01873 814.945614,111.190907 798.901131,183.114327 C790.893545,201.167926 770.388028,184.523463 758.608786,179.670685 C747.795614,177.248989 751.717338,201.559809 749.992717,208.78031 C750.011476,218.044704 755.28851,223.389095 762.566855,227.4628 C771.507683,227.556664 768.046717,210.134301 773.163131,204.272484 C788.442028,172.507676 824.258097,245.543385 824.338993,200.666926 C828.100097,157.261788 861.518579,188.73327 856.0692,203.813722 C840.93451,211.663114 844.973476,192.816362 836.935407,221.132835 C820.384441,258.900256 785.842786,188.330828 780.886993,249.212301 C779.774372,253.849191 780.441476,258.003854 784.57189,261.076732 C792.514993,268.311313 795.913821,273.020947 805.742166,264.776153 C817.00789,256.934975 828.146993,248.910762 839.355269,240.988626 C844.872648,235.767432 848.919821,242.420055 853.802924,245.319285 C872.101959,260.769327 823.004786,275.084786 813.793131,283.479762 C800.265821,292.874392 790.533614,284.113345 781.446234,273.812926 C770.956648,270.15457 762.8752,244.156542 753.349338,249.706261 C732.738303,270.92895 711.256166,291.642425 690.477476,312.577655 C713.12851,386.14487 697.993821,403.620032 626.155338,432.239217 C623.2372,433.188418 621.383614,434.860374 621.002579,437.519076 C616.420786,463.736512 595.338441,482.327484 572.867959,494.054638 C530.306993,517.963015 530.649338,469.662861 513.339821,474.30327 C476.167269,499.376737 446.603683,482.666568 456.662993,436.942985 C452.234786,424.205617 423.474303,443.375027 417.240579,421.078767 C410.396028,413.422971 418.140993,389.416036 410.638717,389.78328 C379.213338,407.482542 351.984028,432.307268 320.117821,449.682699 C258.121752,478.734833 284.744924,387.508247 303.415614,361.536032 C331.028303,321.781036 368.647545,288.497975 410.360855,264.100331 C424.005407,258.460268 413.76789,240.911189 415.816097,229.213367 C416.320234,212.06321 422.442579,187.48605 440.413338,181.549142 C461.172097,162.605006 495.238924,176.146085 518.792717,185.148833 C522.369752,186.921692 526.650234,188.955025 529.718441,185.402266 C551.326028,161.672231 574.783683,138.595725 602.741062,122.542605 C617.048028,114.179308 592.722786,106.805104 587.70251,100.57135 C563.789959,70.2673033 663.517821,24.3888443 684.234372,8.24186066 C772.166579,-25.4436429 640.292303,60.9301651 625.943131,70.4515117 C621.266372,75.8428349 601.0012,82.589322 608.403821,90.4774321 C615.750166,92.6550808 642.150579,118.495886 645.312579,108.70468 C639.951131,43.8199005 700.057269,99.4191674 705.490234,80.274397 C700.178028,68.7772096 698.07589,49.6277459 712.534097,44.7362494 C725.381407,37.6788372 750.39251,73.14776 747.926924,47.6695047 C750.942372,-6.43262881 797.493062,57.0570948 790.888855,18.9470691 C790.200648,11.8004859 794.426028,7.34311124 798.819062,2.98781382 C815.940993,0.0404789227 809.028441,31.1939965 807.646166,41.4768162 C801.49451,65.5459356 771.314234,38.2455422 764.565821,46.8470199 C763.639614,95.1905867 749.818028,77.4256194 719.742097,64.2412237" id="Fill-1"/><path d="M653.55458,566.502261 C739.450713,577.931546 717.727874,612.389095 764.908575,560.850816 C767.33107,558.638922 770.367092,556.141473 774.338626,557.28838 C781.64358,566.205001 766.991522,586.089803 761.59506,595.185482 C751.699009,605.566166 826.92984,621.120806 828,636.025923 C822.136367,656.018394 772.733387,622.350806 757.899847,620.23722 C739.365241,605.244329 703.489128,702.464638 687.146358,692.245458 C660.536377,672.661427 737.882941,613.938591 717.416427,604.751627 C709.370323,595.674673 626.023137,578.647778 653.55458,566.502261" id="Fill-4"/><path d="M729.138954,391 C741.420386,396.475667 748.674029,434.251206 761.612328,429.336696 C779.396928,420.551496 797.484787,412.267705 816.254102,405.81968 C835.428544,397.911946 851.274155,406.444098 825.675057,419.021496 C810.281409,427.680172 794.657095,435.932332 779.261105,444.593351 C767.518281,451.199531 766.205717,450.114707 774.89721,462.933437 C782.250379,478.233438 808.2628,507.37256 796.93447,522.994729 C779.359459,523.518397 766.201034,484.878278 754.478115,472.313767 C747.886022,455.640749 735.791933,470.289387 725.543161,474.468185 C713.981825,477.347772 655.072168,526.102761 662.674736,492.36661 C681.618514,474.475214 705.903877,463.41493 727.362719,448.868214 C751.58017,442.424875 703.963717,399.598929 729.138954,391" id="Fill-6"/><path d="M-0.000468246445,183.864373 C31.0032995,129.574215 102.59701,101.235064 155.024224,66.9191123 C181.707247,49.9924548 207.911489,32.0503384 234.310053,14.8870918 C252.741404,9.40689315 247.522797,31.6263521 235.525153,36.3651603 C160.390328,90.4526945 78.2868256,135.66814 -0.000468246445,183.864373" id="Fill-8"/><path d="M704.282446,769.784225 C701.340852,784.909826 724.670934,784.706663 734.181032,790.796832 C739.621399,793.036313 745.72131,789.609566 750.776259,792.756818 C769.682821,821.530691 719.715561,805.948268 707.24044,800.531001 C686.096345,791.860791 699.275528,873.864331 672.662951,859.250745 C654.246068,848.60763 687.153023,794.465495 672.86796,786.548041 C664.623064,781.898798 651.357191,782.617498 646,774.545031 C650.429377,761.640122 675.230841,774.742321 683.608115,769.838245 C688.277646,766.153141 688.309276,756.970915 693.195531,752.843082 C703.643987,748.499169 705.343809,761.970114 704.282446,769.784225" id="Fill-11"/><path d="M307,58.6871856 C252.960506,92.9959348 196.199077,129.327173 141.918414,165.755332 C86.7526828,172.956654 305.48274,18.4884624 307,58.6871856" id="Fill-13"/><path d="M816.533337,804.844258 C815.662411,833.041127 803.612844,836.969458 793.924223,808.388678 C793.257329,797.80003 791.686863,787.217252 790.102406,776.711961 C785.891178,761.03738 759.326168,766.065785 753,753.278163 C757.084144,733.333607 787.297253,761.457686 790.617733,742.20816 C790.737821,735.713382 796.022841,720.3147 803.977771,728.191321 C813.556797,738.531073 807.3752,757.159533 819.309343,764.889399 C829.30343,768.272976 849.600567,783.017718 829.325582,788.45234 C825.454797,789.208421 821.167786,785.071111 817.924255,788.102477 C813.552134,793.492485 816.175406,797.717848 816.533337,804.844258" id="Fill-15"/><path d="M348.919435,18 C386.064234,28.3438367 413.771408,59.8530601 447.263236,78.5165839 C458.465132,86.7521747 473.345824,91.1426989 481.410063,102.96406 C485.432791,113.759914 467.719639,107.452696 463.435145,104.072495 C418.447962,86.8164149 383.183645,55.9285692 347.935762,24.3294096 C344.967136,22.2608758 345.504752,18.6832819 348.919435,18" id="Fill-17"/><path d="M276.855425,137 C244.673075,135.608061 335.919944,69.7377486 341.80786,89.7980507 C343.989874,99.8340502 326.861069,99.9440017 327.150831,109.087523 C312.659213,119.474431 295.287572,134.60563 276.855425,137" id="Fill-19"/><path d="M610.491702,561.575513 C581.066584,551.128281 592.779861,596.335346 578.230429,583.776465 C568.520599,575.541382 586.650561,558.426151 573.680566,553.154623 C567.961142,550.643314 557.76959,549.794915 558.003973,541.81926 C561.012089,534.085503 571.687719,537.64621 577.9772,538.617312 C589.082729,544.554939 589.2594,516.010857 599.509842,526.231382 C604.866502,532.409739 594.470012,542.624421 603.057393,546.183959 C611.087671,546.791628 625.41921,560.738799 610.491702,561.575513" id="Fill-21"/><path d="M439.48097,26 C460.140987,35.4671091 480.207479,51.5383809 495.399596,68.699511 C504.301291,103.879946 410.824734,28.0674209 439.48097,26" id="Fill-23"/><path d="M590.300173,617.399712 C594.59091,617.287927 597.222954,620.422623 598.845205,615.860604 C616.559483,609.848907 608.283651,619.424792 616.082212,630.033808 C621.721298,635.753687 613.83222,649.409149 606.534441,645.992047 C602.811492,643.864596 599.458839,645.243674 596.630479,646.920454 C588.406371,651.405988 579.534537,640.941704 579.047862,633.368541 C578.35194,627.515697 585.396977,619.54599 590.300173,617.399712" id="Fill-25"/><path d="M107.470843,214.918993 C43.1477788,213.518997 104.238873,187.355759 130.652974,198.960005 C148.697947,212.703233 115.982801,215.55001 107.470843,214.918993" id="Fill-27"/><path d="M199.671025,252 C145.135079,249.132992 198.871333,228.075676 221.254512,237.337502 C239.921406,248.925681 207.830693,251.581846 199.671025,252" id="Fill-29"/><path d="M249,208.774596 C260.980338,203.311461 318.940158,192.825784 326,203.833732 C323.450417,208.626198 318.401795,207.559799 314.337038,208.23622 C292.295897,208.932198 270.720239,215.997807 249,208.774596" id="Fill-31"/><path d="M777.641,871.0289 C772.772923,856.5859 781.819077,859.0559 792.035231,860.423264 C797.479077,860.786082 794.880615,866.082991 796.279077,869.757264 C795.819846,877.433173 783.287923,879.498991 778.108308,884.425991 C771.892538,889.154445 759.238308,862.883809 777.641,871.0289" id="Fill-33"/><path d="M512.80619,32 C523.420837,33.1016965 532.155416,50.0156996 529.528713,59.9937531 C519.382911,60.4439086 491.534701,36.4292938 512.80619,32" id="Fill-36"/><path d="M364,119.752293 C367.469591,109.97168 376.453125,105.973748 386.178898,107.221792 C398.83065,114.387567 376.743516,131.72164 368.015526,129.861216 C363.104434,127.875057 367.646149,122.38343 364,119.752293" id="Fill-38"/><path d="M251.713095,277.697875 C239.047091,279.479294 232.173948,273.132917 244.405016,265.23748 C254.02295,262.605271 264.417889,260.804787 274.241535,262.95083 C286.095268,274.186277 256.182342,277.006757 251.713095,277.697875" id="Fill-40"/><path d="M485.499439,134 C492.09081,136.737408 502.410058,135.558869 507,140.881069 C500.888972,146.905789 485.562093,151.739858 477.411349,147.229191 C469.027395,136.721662 477.79307,135.235467 485.499439,134" id="Fill-42"/><path d="M108.560007,273.204464 C140.736851,273.469893 106.693183,289.994654 93.7847599,286.520162 C84.0121371,278.450875 102.637346,271.72906 108.560007,273.204464" id="Fill-44"/><path d="M643.696838,247.190841 C628.843635,267.319618 635.376087,263.000782 646.473159,282.355826 C650.18822,306.289961 633.275658,290.839924 626.429901,280.447285 C614.712088,274.613808 607.913269,302.073117 596.452435,305.427132 C594.330884,306.498635 592.210507,306.060186 590.514909,304.16923 C567.685942,286.293657 613.095109,272.891667 601.613154,255.589359 C595.954903,247.349105 589.313323,239.236633 584.279333,230.750191 C588.36989,204.510097 612.178665,253.885975 622.328784,246.977478 C629.071279,243.117021 640.821948,234.542654 643.696838,247.190841" id="Fill-46"/></g></g></g></g></svg>