<svg viewBox="0 17.875 1071.9999999999998 1394.2499999999995" xmlns="http://www.w3.org/2000/svg" overflow="visible" xmlns:xlink="http://www.w3.org/1999/xlink" width="1071.9999999999998px" height="1394.2499999999995px"><g id="Master/Textures/Colorful" stroke="none" stroke-width="1" fill="none" fill-rule="evenodd"><g id="Textures/Colorful" transform="scale(1 1)"><g id="Textures/Colorful/Squiggle 23" stroke="none" stroke-width="1" fill="none" fill-rule="evenodd"><g id="Group-116" transform="translate(11.000000, 22.000000)"><path d="M972.7307,87.084 C963.6097,109.61 918.6937,59.371 932.3657,34.81 C935.1467,26.883 946.0897,26.151 945.7147,16.693 C949.5797,17.004 949.5537,20.366 950.0687,22.831 C957.3047,44.674 956.2507,70.368 972.7307,87.084" id="Fill-1" fill="#0e0e0e"/><path d="M346.1279,173.5625 C374.5609,174.4075 367.5749,222.8675 339.9619,220.4615 C308.1259,213.2005 335.4849,186.9755 346.1279,173.5625" id="Fill-3" fill="#0e0e0e"/><path d="M903.8325,951.0333 C890.2895,940.9743 879.6135,924.1863 888.0935,905.2543 C891.0435,890.5323 919.3495,891.8983 912.8275,904.9053 C912.8875,917.6353 901.3815,931.1013 912.3295,942.2373 C917.7615,946.4413 916.6485,952.6373 903.8325,951.0333" id="Fill-5" fill="#fef200"/><path d="M579.0981,636.7023 C581.9261,664.3043 549.7251,643.8893 548.8381,629.0493 C551.4151,616.8253 534.4131,610.2683 540.0441,598.8823 C560.8141,583.2473 565.7861,626.7503 579.0981,636.7023" id="Fill-7" fill="#fef200"/><path d="M215.8437,866.1046 C214.3887,865.0286 214.5267,865.8306 214.5567,867.2246 C216.1767,868.0676 216.3017,867.7826 215.8437,866.1046 M262.2027,878.7086 C244.5577,900.8236 220.0667,871.4336 200.4937,886.3586 C185.8317,897.0886 180.7637,871.0746 195.7517,867.6226 C217.3337,859.3886 240.0557,876.5186 262.2027,878.7086" id="Fill-9" fill="#fef200"/><path d="M459.8877,742.1896 C444.9407,739.3386 441.9927,758.3916 429.4377,756.8526 C425.4537,754.6876 418.6097,753.1556 423.0717,745.6186 C426.2627,719.6806 511.4587,732.7476 479.5337,744.5856 C473.3857,740.6036 467.3477,735.6246 459.8877,742.1896" id="Fill-11" fill="#0e0e0e"/><path d="M262.0827,1366.3439 C246.9037,1366.2419 215.8187,1347.5739 219.1357,1330.6409 C225.4007,1328.3979 230.5177,1339.2889 238.1007,1332.5689 C250.6857,1335.0869 262.5507,1352.5339 262.0827,1366.3439" id="Fill-13" fill="#0e0e0e"/><path d="M893.4479,416.3077 C898.8449,395.5537 940.3029,411.5497 946.3449,426.6227 C936.0189,427.8447 922.5659,416.0607 912.8609,429.9537 C906.3079,436.7017 892.4459,427.3047 893.4479,416.3077" id="Fill-15" fill="#fef200"/><path d="M122.028,1321.256 C126.386,1323.009 131.043,1323.211 135.382,1323.398 C123.585,1331.297 115.963,1356.221 104.653,1356.75 C86.715,1342.514 101.945,1314.266 122.028,1321.256" id="Fill-17" fill="#fef200"/><path d="M83.1388,209.1758 C85.4278,213.7778 83.4778,221.4918 91.8838,223.7498 C101.1158,237.7788 76.3738,243.3698 68.3088,234.4618 C49.4878,225.0388 77.9118,184.3458 83.1388,209.1758" id="Fill-19" fill="#fef200"/><path d="M262.0827,1366.3439 C260.2967,1355.2949 259.2997,1344.1989 259.0997,1333.0079 C260.1837,1320.1489 283.5867,1318.2779 277.4677,1338.0729 C276.5547,1348.1209 276.5147,1393.6209 262.0827,1366.3439" id="Fill-21" fill="#fef200"/><path d="M70.0581,114.0245 C67.3931,115.6195 54.6321,112.9285 51.4831,111.2625 C50.3771,102.3535 40.7131,93.3335 50.9861,84.6575 C61.3691,72.0645 90.2491,114.5325 70.0581,114.0245" id="Fill-23" fill="#fef200"/><path d="M972.7307,87.084 C960.1517,77.545 951.2327,48.136 975.8377,53.01 C990.2327,58.866 978.0167,75.271 985.3967,85.413 C986.9717,87.942 988.1417,90.789 985.5157,92.722 C980.0557,95.296 979.5407,82.029 972.7307,87.084" id="Fill-25" fill="#fef200"/><path d="M601.2123,11.3282 C618.0903,7.5902 617.6633,21.9902 619.3073,33.6882 C618.9453,37.0032 626.3573,39.5792 620.9453,42.5122 C612.9283,49.2872 609.4943,40.8752 603.4333,35.5692 C590.2713,34.3352 588.3033,14.8232 601.2123,11.3282" id="Fill-27" fill="#fef200"/><g id="Group-31" transform="translate(576.000000, 0.200000)" fill="#fef200"><path d="M25.2123,11.1282 C7.1583,19.0242 20.1653,33.8462 31.9113,39.2582 C-29.6277,37.3032 15.6123,-22.7148 25.2123,11.1282" id="Fill-29"/></g><path d="M791.1972,1076.336 C796.2072,1059.588 813.1972,1058.908 817.4472,1075.225 C808.2482,1078.807 809.2942,1094.224 799.1972,1094.139 C788.0032,1094.046 794.6492,1081.972 791.1972,1076.336" id="Fill-32" fill="#0e0e0e"/><path d="M42.9945,539.5362 C35.7915,508.8072 73.7555,521.6562 78.8485,541.1762 C66.8245,541.4152 54.4865,544.6462 42.9945,539.5362" id="Fill-34" fill="#fef200"/><path d="M392.445,36.9083 C386.625,42.4443 378.071,50.7393 370.344,55.5053 C364.759,61.7463 354.876,53.8153 363.464,49.4263 C363.188,35.0383 392.055,10.5243 392.445,36.9083" id="Fill-36" fill="#fef200"/><path d="M54.1892,1236.7316 C65.3502,1240.4756 68.2472,1235.7656 74.4482,1234.0966 C74.3992,1238.7206 79.1082,1248.1426 72.5842,1249.5296 C61.7372,1247.4136 66.2322,1261.9696 57.5202,1263.4956 C42.1772,1264.4066 46.5782,1242.2736 54.1892,1236.7316" id="Fill-38" fill="#fef200"/><path d="M65.8864,700.421 C81.4434,702.813 49.0124,710.025 47.5024,719.766 C45.3654,727.631 34.4434,723.121 33.0724,731.15 C24.0374,715.247 46.1604,700.539 65.8864,700.421" id="Fill-40" fill="#0e0e0e"/><path d="M904.133,1100.7521 C909.362,1083.9041 924.604,1116.2331 932.848,1120.5791 C945.883,1152.0651 905.714,1110.2891 900.733,1099.6451 C902.491,1101.1761 904.975,1105.3121 904.133,1100.7521" id="Fill-42" fill="#fef200"/><path d="M671.6955,1207.4083 C685.1095,1212.6313 690.3005,1231.4193 676.4815,1237.7263 C662.5825,1233.3893 653.7845,1212.7453 671.6955,1207.4083" id="Fill-44" fill="#fef200"/><path d="M346.1279,173.5625 C344.3439,186.5675 310.5749,199.3755 325.6369,178.5805 C330.6879,173.3115 323.3829,165.0235 328.0099,160.2545 C335.6959,154.8465 347.9539,164.3215 346.1279,173.5625" id="Fill-46" fill="#fef200"/><path d="M561.6579,940.5362 C568.0089,942.8802 588.0409,936.0492 580.7559,949.7452 C572.9749,953.0232 563.4049,950.1402 556.5029,957.7942 C533.9389,957.8762 542.5689,938.6602 561.6579,940.5362" id="Fill-48" fill="#fef200"/><path d="M76.6893,1051.9054 C55.5563,1057.3724 44.4223,1075.2944 29.3933,1088.8584 C21.1863,1068.5384 55.1403,1058.2834 52.6423,1054.9384 C48.3773,1058.9844 73.1803,1052.9174 76.6893,1051.9054" id="Fill-50" fill="#0e0e0e"/><path d="M502.4507,1333.7589 C494.0897,1336.5599 492.2947,1326.7289 490.3737,1320.4269 C488.2847,1293.2399 541.4997,1331.1679 502.4507,1333.7589" id="Fill-52" fill="#fef200"/><path d="M58.0189,23.0157 C54.0359,26.7167 50.7409,30.4297 50.7589,35.9277 C42.6679,31.1667 32.9699,27.1787 34.0059,15.6247 C40.1019,-0.7563 53.1209,13.6677 58.0189,23.0157" id="Fill-54" fill="#0e0e0e"/><path d="M906.8747,1363.7569 C912.3207,1368.0589 932.1077,1357.5029 930.6807,1367.1569 C922.5587,1391.8409 874.0377,1364.7999 906.8747,1363.7569" id="Fill-56" fill="#0e0e0e"/><path d="M324.3574,994.3663 C331.7874,988.5643 351.2234,996.1263 355.9324,1007.0463 C364.1134,1028.7193 327.6334,1004.9243 324.3574,994.3663" id="Fill-58" fill="#fef200"/><path d="M224.7031,354.7471 C221.4311,363.8311 210.4451,378.5141 200.3501,370.1411 C200.4861,361.6951 212.9801,357.8321 209.7431,347.4201 C212.5971,335.1531 223.6761,347.6451 224.7031,354.7471" id="Fill-60" fill="#fef200"/><path d="M848.4687,682.7882 C869.3917,693.2242 845.2227,693.4372 844.6557,714.2942 C832.4087,705.6692 832.2117,690.8402 848.4687,682.7882" id="Fill-62" fill="#0e0e0e"/><path d="M823.5595,1339.85949 C826.0695,1342.2665 830.3495,1342.7795 828.8795,1348.3525 C826.0495,1359.0815 822.0575,1370.0295 829.9305,1380.6035 C822.6125,1402.3565 809.5265,1339.8305 823.5595,1339.85949" id="Fill-64" fill="#fef200"/><path d="M76.6893,1051.9054 C73.3493,1052.8894 48.2353,1059.0054 52.6353,1054.9374 C59.3113,1061.3574 33.4753,1057.2384 40.1643,1046.4874 C43.1963,1039.0514 48.3573,1041.4524 53.6103,1043.6954 C59.2623,1049.7044 79.7203,1041.8534 76.6893,1051.9054" id="Fill-66" fill="#fef200"/><path d="M797.58,119.7959 C791.798,116.0019 781.556,96.1889 793.659,98.1279 C798.63,104.0049 803.382,110.1709 812.626,107.8469 C822.923,113.4719 803.325,117.6059 797.58,119.7959" id="Fill-68" fill="#fef200"/><path d="M137.6491,50.2198 C140.2371,76.8458 95.1371,64.9638 116.4941,56.4628 C122.3041,55.6108 128.8361,55.5878 131.7501,48.5998 C134.1021,44.9098 136.7841,47.2268 137.6491,50.2198" id="Fill-70" fill="#fef200"/><path d="M42.9945,539.5362 C58.8945,547.2822 70.6325,533.7592 59.7795,554.8052 C52.1225,569.5802 33.1775,549.8022 42.9945,539.5362" id="Fill-72" fill="#fef200"/><path d="M543.2316,491.7208 C543.7806,501.9668 516.7856,487.5748 516.6996,484.4308 C522.2166,469.0778 539.3656,481.5578 543.2316,491.7208" id="Fill-74" fill="#fef200"/><path d="M602.4147,315.7901 C599.4517,319.5731 592.5147,326.0901 592.1957,323.8001 C582.9577,310.9021 581.3347,292.1401 602.3747,303.4631 C608.0557,308.9901 595.8747,308.3941 597.5367,314.5431 C597.7787,318.3711 600.9487,314.5491 602.4147,315.7901" id="Fill-76" fill="#fef200"/><path d="M1029.905,1239.8243 C1023.036,1245.9353 1018.928,1252.6843 1020.253,1261.6743 C999.236,1259.8743 1012.932,1225.2163 1029.905,1239.8243" id="Fill-78" fill="#fef200"/><path d="M754.28,481.8448 C756.865,464.5898 774.464,476.0458 779.342,482.4688 C777.464,493.7698 758.915,486.9308 754.28,481.8448" id="Fill-80" fill="#fef200"/><path d="M598.1535,204.1778 C592.9755,218.3778 562.2505,196.8468 575.8555,194.2868 C581.3325,201.9848 595.1875,189.0318 598.1535,204.1778" id="Fill-82" fill="#fef200"/><path d="M16.0499,264.543 C11.2359,261.93 3.9649,274.278 0.2239,263.488 C-0.9751,260.032 2.7629,252.658 8.6029,252.422 C17.2979,248.334 31.7999,266.392 16.0499,264.543" id="Fill-84" fill="#fef200"/><path d="M459.8877,742.1896 C467.9667,733.8566 484.0367,744.2486 480.3687,752.0376 C472.1957,757.7636 455.6327,755.1496 459.8877,742.1896" id="Fill-86" fill="#fef200"/><path d="M449.1025,1150.59 C440.7825,1152.539 439.8315,1162.027 433.0315,1165.174 C415.9475,1157.986 441.5775,1132.883 449.1025,1150.59" id="Fill-88" fill="#fef200"/><path d="M132.7312,1128.8048 C128.7762,1131.7048 106.0642,1146.3898 106.0292,1141.8168 C107.4442,1127.7298 121.9162,1120.2978 132.7312,1128.8048" id="Fill-90" fill="#fef200"/><path d="M451.3576,1322.212 C426.9456,1333.987 430.8186,1292.043 441.7046,1307.918 C446.4796,1324.072 445.7336,1314.425 451.3576,1322.212" id="Fill-92" fill="#fef200"/><path d="M340.3235,522.1427 C321.1955,537.2227 311.0795,527.3177 333.1795,512.5887 C333.4115,512.1207 338.8505,516.5687 340.3235,522.1427" id="Fill-94" fill="#fef200"/><path d="M936.4999,541.254 C936.0589,550.902 924.0159,557.629 919.2229,549.986 C917.9239,545.02 926.9979,545.318 928.5359,540.744 C929.4819,528.996 934.3939,532.342 936.4999,541.254" id="Fill-96" fill="#fef200"/><path d="M1015.6371,1070.4357 C1017.2561,1089.3737 1002.9631,1076.0957 1002.7471,1063.5917 C1009.1271,1061.4757 1018.2921,1059.9137 1015.6371,1070.4357" id="Fill-98" fill="#fef200"/><path d="M978.2575,1288.798 C974.9905,1299.76 972.0905,1315.277 966.6575,1297.661 C966.6015,1292.909 972.1485,1282.041 978.2575,1288.798" id="Fill-100" fill="#fef200"/><path d="M322.9619,877.7345 C301.3909,879.6685 315.1769,848.8755 318.6889,864.4455 C316.4859,870.6335 328.5619,876.0275 322.9619,877.7345" id="Fill-102" fill="#fef200"/><path d="M1035.926,29.1211 C1025.151,29.5721 1032.64,20.5611 1038.056,20.2951 C1041.82,21.4751 1049.553,21.7461 1047.736,27.9471 C1045.459,35.7181 1039.492,24.3421 1035.926,29.1211" id="Fill-104" fill="#fef200"/><path d="M1048.635,718.6271 C1051.404,731.1621 1041.378,732.5051 1036.697,724.3471 C1040.837,721.5371 1046.982,720.6571 1046.875,713.7611 C1047.821,716.3751 1048.766,718.9901 1048.635,718.6271" id="Fill-106" fill="#0e0e0e"/><path d="M934.9147,326.6709 C930.8247,327.1789 924.9717,332.5379 922.7357,328.4209 C924.0457,322.5749 931.5147,319.6529 934.9147,326.6709" id="Fill-108" fill="#fef200"/><path d="M602.4147,315.7901 C594.7727,318.1371 596.8967,308.4661 603.5377,308.1071 C611.0397,306.8051 606.2737,313.2111 602.4147,315.7901" id="Fill-110" fill="#0e0e0e"/><path d="M285.7688,501.5812 C284.4368,494.4202 294.1858,498.8512 293.4708,503.2082 C292.1258,508.1072 284.6278,506.2892 285.7688,501.5812" id="Fill-112" fill="#fef200"/><path d="M899.5759,1095.5831 C899.5169,1095.7431 899.2629,1095.9361 899.6009,1095.9381 L899.5759,1095.5831 Z" id="Fill-114" fill="#fef200"/></g></g></g></g></svg>