<svg viewBox="114.97499999999991 186.191011235955 740.95 612.1348314606741" fill="none" xmlns="http://www.w3.org/2000/svg" xmlns:xlink="http://www.w3.org/1999/xlink" overflow="visible" width="740.95px" height="612.1348314606741px"><g id="Master/Scenes/Remote Life"><g id="Background" transform="translate(271 173) scale(1 1)"><g id="Background/4"><path id="Shape" fill-rule="evenodd" clip-rule="evenodd" d="M359.467 98.8755C390.688 130.175 411.708 171.775 428.154 217.875C444.6 263.975 456.296 314.375 450.492 365.675C444.688 417.075 421.294 469.175 384.268 494.175C347.526 518.826 297.337 516.917 250.171 511.928L248.742 511.775C201.163 506.675 156.926 498.575 116.47 474.875C76.1029 451.175 39.5171 411.675 30.3707 365.575C21.4027 319.837 39.3281 267.435 59.8265 221.952L60.4484 220.575C81.1159 174.775 104.158 136.075 135.379 104.775C166.6 73.4755 206 49.5755 246.456 48.0755C286.823 46.5755 328.158 67.5755 359.467 98.8755ZM244.46 181.85L241.832 182.135C221.929 184.356 203.392 187.955 186.393 197.881C168.875 208.132 152.998 225.216 149.029 245.155C145.186 264.689 152.722 287.033 161.476 306.531L162.081 307.871C171.05 327.681 181.05 344.419 194.598 357.957C208.147 371.495 225.245 381.833 242.802 382.481C260.32 383.13 278.257 374.047 291.844 360.509C305.174 347.19 314.219 329.558 321.305 310.002L321.652 309.039C328.788 289.1 333.865 267.301 331.346 245.112C328.827 222.881 318.675 200.346 302.607 189.533C286.674 178.879 264.915 179.696 244.46 181.85V181.85Z" fill="#141313" fill-opacity="0.04"/></g></g><g id="Group 96"><path id="Stroke 3" d="M431.708 585.84C432.762 585.84 433.626 586.656 433.702 587.691L433.708 587.84V601.537C433.708 602.642 432.812 603.537 431.708 603.537C430.653 603.537 429.789 602.721 429.713 601.686L429.708 601.537V587.84C429.708 586.736 430.603 585.84 431.708 585.84Z" fill="#141313"/><path id="Fill 4" fill-rule="evenodd" clip-rule="evenodd" d="M346.851 637.734H612.119V600.16H346.851V637.734Z" fill="#141313"/><path id="Fill 5" fill-rule="evenodd" clip-rule="evenodd" d="M577.148 405.334H736.211V367.759H577.148V405.334Z" fill="#141313"/><g id="Group 95"><path id="Stroke 6" d="M679.539 320.53C680.3 320.53 680.94 321.1 681.029 321.855C681.792 328.367 681.625 335.138 680.155 342.202C677.354 355.663 670.906 366.079 662.732 374.446C662.153 375.039 661.203 375.05 660.611 374.471C660.018 373.892 660.007 372.942 660.586 372.35C668.394 364.357 674.55 354.413 677.218 341.59C678.506 335.402 678.743 329.447 678.206 323.699L678.189 323.53H604.408L604.392 323.698C603.877 329.191 604.072 334.882 605.217 340.784L605.379 341.59C608.048 354.413 614.203 364.357 622.012 372.35C622.591 372.942 622.58 373.892 621.987 374.471C621.394 375.05 620.445 375.039 619.866 374.446C611.691 366.079 605.244 355.663 602.442 342.202C600.972 335.135 600.805 328.359 601.57 321.855C601.653 321.147 602.221 320.602 602.919 320.537L603.06 320.53H679.539Z" fill="#141313"/><path id="Stroke 8" d="M594.896 270.092C597.069 267.317 600.219 267.733 603.236 269.986C613.736 277.829 621.706 291.408 627.812 308.762C629.251 312.866 630.538 317.171 631.652 321.674C631.851 322.479 631.361 323.292 630.557 323.491C629.753 323.69 628.939 323.199 628.74 322.395C627.648 317.984 626.389 313.769 624.981 309.756C619.056 292.916 611.356 279.796 601.441 272.39C599.559 270.984 598.153 270.799 597.259 271.94C596.788 272.544 596.494 273.366 596.246 274.659C595.333 279.426 595.803 284.679 597.455 290.254C599.298 296.47 602.127 302.621 606.556 310.634C608.512 314.171 610.555 317.634 612.848 321.228C613.293 321.927 613.088 322.854 612.39 323.299C611.692 323.745 610.764 323.54 610.319 322.842C607.99 319.191 605.915 315.675 603.93 312.085L603.101 310.572C599.046 303.107 596.376 297.168 594.579 291.106C592.8 285.103 592.288 279.379 593.299 274.094C593.63 272.373 594.065 271.156 594.896 270.092Z" fill="#141313"/><path id="Stroke 10" d="M631.529 258.655C633.952 255.329 636.764 253.76 639.83 254.993C643.181 256.339 644.923 259.744 645.745 264.746C645.919 265.804 646.048 266.91 646.153 268.153L646.2 268.737L646.36 271.071C647.374 286.028 646.958 301.008 645.346 322.149C645.283 322.975 644.562 323.593 643.736 323.53C642.91 323.467 642.291 322.747 642.354 321.921L642.597 318.654C643.97 299.706 644.304 285.802 643.418 272.052L643.276 269.897C643.238 269.336 643.203 268.867 643.164 268.406C643.065 267.236 642.945 266.205 642.785 265.232C642.117 261.167 640.814 258.621 638.712 257.776C635.959 256.67 632.624 261.246 630.501 267.272C628.078 274.152 627.076 281.804 627.082 291.161L627.092 292.724C627.133 296.36 627.289 299.717 627.647 305.357L627.894 309.16C627.948 309.987 627.321 310.7 626.495 310.754C625.668 310.808 624.954 310.182 624.9 309.355L624.553 303.947C624.241 298.851 624.111 295.663 624.086 292.038C624.014 281.972 625.044 273.738 627.671 266.275C628.593 263.658 629.948 260.823 631.529 258.655Z" fill="#141313"/><path id="Stroke 12" d="M675.171 296.075C677.77 295.761 679.861 296.737 680.774 299.207C681.235 300.443 681.265 301.733 681.027 303.401C680.634 306.051 679.818 308.688 678.511 311.875C676.914 315.756 675.024 319.435 672.862 322.839C672.418 323.538 671.491 323.745 670.791 323.301C670.092 322.856 669.885 321.929 670.329 321.23C672.396 317.978 674.205 314.455 675.736 310.735C676.959 307.754 677.708 305.333 678.059 302.968C678.231 301.762 678.211 300.92 677.962 300.252C677.583 299.227 676.865 298.892 675.531 299.053C674.286 299.204 672.752 299.813 671.299 300.64C668.414 302.289 665.769 304.331 663.484 306.68C662.906 307.273 661.956 307.286 661.362 306.708C660.769 306.131 660.756 305.181 661.334 304.587C663.815 302.037 666.683 299.823 669.813 298.034C671.584 297.026 673.457 296.283 675.171 296.075Z" fill="#141313"/><path id="Stroke 14" d="M659.764 271.123C662.063 269.418 664.375 269.015 666.342 270.645C668.041 272.051 668.503 273.984 668.712 277.504C669.226 286.109 667.569 294.73 663.83 306.111C663.329 307.606 662.827 309.079 662.323 310.528L659.591 318.257L659.502 318.489C659.217 319.267 658.355 319.666 657.578 319.381C656.8 319.096 656.401 318.234 656.686 317.456L656.811 317.124L658.99 310.972C659.657 309.077 660.322 307.138 660.983 305.166C664.611 294.122 666.204 285.833 665.718 277.682C665.561 275.046 665.218 273.608 664.429 272.956C663.758 272.4 662.87 272.555 661.551 273.532C660.432 274.363 659.451 275.428 658.091 277.122C656.257 279.398 654.696 281.981 652.902 285.542L652.617 286.112C650.512 290.34 648.544 294.872 646.473 300.159C646.171 300.93 645.3 301.311 644.529 301.009C643.758 300.706 643.377 299.836 643.679 299.065C645.781 293.701 647.783 289.091 649.931 284.777C651.934 280.742 653.662 277.837 655.753 275.242C657.268 273.355 658.375 272.154 659.764 271.123Z" fill="#141313"/><path id="Stroke 16" d="M610.993 334.526C611.389 334.312 611.856 334.288 612.268 334.455L612.419 334.526L619.11 338.14L625.797 334.526C626.193 334.312 626.66 334.288 627.072 334.455L627.223 334.526L633.911 338.139L640.598 334.526C640.994 334.312 641.462 334.288 641.873 334.455L642.025 334.526L648.708 338.139L655.393 334.526C655.789 334.312 656.257 334.288 656.668 334.455L656.82 334.526L663.501 338.139L670.184 334.526C670.579 334.312 671.047 334.288 671.459 334.455L671.611 334.526L679.009 338.526C679.737 338.92 680.009 339.83 679.615 340.559C679.244 341.245 678.416 341.525 677.712 341.228L677.582 341.165L670.897 337.55L664.216 341.165C663.82 341.379 663.352 341.403 662.94 341.236L662.789 341.165L656.105 337.55L649.422 341.165C649.026 341.379 648.558 341.403 648.146 341.236L647.995 341.165L641.31 337.55L634.626 341.165C634.23 341.379 633.762 341.403 633.351 341.236L633.199 341.165L626.51 337.549L619.824 341.165C619.428 341.379 618.96 341.403 618.549 341.236L618.397 341.165L611.706 337.55L605.015 341.165C604.329 341.536 603.483 341.317 603.057 340.682L602.983 340.558C602.612 339.872 602.831 339.026 603.465 338.6L603.589 338.526L610.993 334.526Z" fill="#141313"/><path id="Stroke 18" d="M614.018 348.291C614.451 348.03 614.983 348.006 615.434 348.22L615.567 348.291L621.427 351.823L627.284 348.291C627.717 348.03 628.25 348.006 628.701 348.22L628.834 348.291L634.684 351.822L640.539 348.291C640.972 348.03 641.505 348.006 641.956 348.22L642.089 348.291L647.94 351.823L653.794 348.291C654.227 348.03 654.76 348.006 655.211 348.22L655.344 348.291L661.195 351.823L667.045 348.291C667.479 348.03 668.012 348.006 668.464 348.22L668.596 348.292L675.217 352.292C675.926 352.72 676.154 353.642 675.726 354.351C675.322 355.018 674.482 355.259 673.793 354.928L673.666 354.859L667.82 351.327L661.971 354.86C661.538 355.121 661.005 355.145 660.553 354.931L660.421 354.86L654.568 351.327L648.716 354.86C648.282 355.121 647.75 355.145 647.298 354.931L647.166 354.86L641.313 351.327L635.46 354.86C635.026 355.121 634.494 355.145 634.042 354.931L633.91 354.86L628.058 351.327L622.203 354.86C621.769 355.121 621.237 355.145 620.786 354.931L620.653 354.86L614.792 351.326L608.931 354.86C608.263 355.263 607.407 355.084 606.953 354.47L606.872 354.35C606.47 353.682 606.648 352.826 607.262 352.371L607.382 352.291L614.018 348.291Z" fill="#141313"/><path id="Fill 20" fill-rule="evenodd" clip-rule="evenodd" d="M310.687 323.755C310.687 338.114 299.046 349.755 284.687 349.755C270.328 349.755 258.687 338.114 258.687 323.755C258.687 309.396 270.328 297.755 284.687 297.755C299.046 297.755 310.687 309.396 310.687 323.755" fill="#141313"/><path id="Fill 22" fill-rule="evenodd" clip-rule="evenodd" d="M236.76 284.599C236.76 291.849 230.883 297.727 223.632 297.727C216.382 297.727 210.504 291.849 210.504 284.599C210.504 277.349 216.382 271.471 223.632 271.471C230.883 271.471 236.76 277.349 236.76 284.599" fill="#141313"/><path id="Fill 24" fill-rule="evenodd" clip-rule="evenodd" d="M360.712 271.336C360.712 278.586 354.834 284.464 347.584 284.464C340.333 284.464 334.455 278.586 334.455 271.336C334.455 264.086 340.333 258.208 347.584 258.208C354.834 258.208 360.712 264.086 360.712 271.336" fill="#141313"/><path id="Fill 26" fill-rule="evenodd" clip-rule="evenodd" d="M258.659 400.419C258.659 407.669 252.781 413.547 245.531 413.547C238.28 413.547 232.403 407.669 232.403 400.419C232.403 393.169 238.28 387.291 245.531 387.291C252.781 387.291 258.659 393.169 258.659 400.419" fill="#141313"/><path id="Fill 28" fill-rule="evenodd" clip-rule="evenodd" d="M355.241 363.214C355.241 370.464 349.364 376.342 342.113 376.342C334.863 376.342 328.985 370.464 328.985 363.214C328.985 355.964 334.863 350.086 342.113 350.086C349.364 350.086 355.241 355.964 355.241 363.214" fill="#141313"/><path id="Stroke 30" d="M221.949 283.519C222.516 282.636 223.66 282.348 224.571 282.833L224.712 282.916L285.766 322.072C286.587 322.598 286.902 323.632 286.535 324.519L286.468 324.665L247.312 401.329C246.809 402.313 245.605 402.703 244.621 402.2C243.684 401.722 243.286 400.606 243.684 399.651L243.75 399.509L282.08 324.46L222.553 286.283C221.67 285.716 221.382 284.571 221.866 283.661L221.949 283.519Z" fill="#141313"/><path id="Stroke 32" d="M346.304 269.8C347.152 269.092 348.413 269.207 349.121 270.056C349.792 270.862 349.723 272.04 348.986 272.762L348.865 272.872L287.995 323.601L343.245 361.566C344.11 362.16 344.361 363.313 343.848 364.208L343.761 364.347C343.166 365.211 342.013 365.463 341.119 364.95L340.98 364.862L283.555 325.403C282.508 324.684 282.397 323.198 283.285 322.328L283.407 322.219L346.304 269.8Z" fill="#141313"/><g id="Group"><path id="Stroke 34" fill-rule="evenodd" clip-rule="evenodd" d="M636.398 526.458C650.967 501.212 677.905 485.33 707.616 485.33C737.336 485.33 764.26 501.204 778.85 526.457C779.118 526.921 779.118 527.494 778.85 527.958C764.261 553.194 737.321 569.068 707.616 569.068C677.915 569.068 650.991 553.197 636.399 527.958C636.13 527.494 636.13 526.922 636.398 526.458ZM775.395 526.509C761.3 503.257 736.199 488.631 708.474 488.335L707.616 488.33C679.56 488.33 654.074 503.025 639.853 526.508L639.435 527.206L639.854 527.905C653.95 551.143 679.051 565.768 706.758 566.064L707.616 566.068C735.667 566.068 761.155 551.379 775.395 527.905L775.813 527.206L775.395 526.509Z" fill="#141313"/><path id="Combined Shape" fill-rule="evenodd" clip-rule="evenodd" d="M707.625 551.57C721.084 551.57 731.995 540.659 731.995 527.2C731.995 513.741 721.084 502.83 707.625 502.83C694.166 502.83 683.255 513.741 683.255 527.2C683.255 540.659 694.166 551.57 707.625 551.57ZM719.562 528.528C723.212 528.528 726.171 525.569 726.171 521.919C726.171 518.269 723.212 515.31 719.562 515.31C715.911 515.31 712.952 518.269 712.952 521.919C712.952 525.569 715.911 528.528 719.562 528.528Z" fill="#141313"/><path id="Stroke 38" d="M827.851 525.699C828.679 525.699 829.351 526.371 829.351 527.199C829.351 527.979 828.756 528.62 827.995 528.693L827.851 528.699H810.349C809.52 528.699 808.849 528.028 808.849 527.199C808.849 526.42 809.444 525.779 810.204 525.706L810.349 525.699H827.851Z" fill="#141313"/><path id="Stroke 40" d="M803.245 486.08C803.659 485.363 804.577 485.117 805.294 485.531C805.969 485.921 806.227 486.757 805.91 487.452L805.843 487.58L797.092 502.737C796.678 503.455 795.761 503.701 795.043 503.286C794.368 502.897 794.111 502.061 794.428 501.366L794.494 501.237L803.245 486.08Z" fill="#141313"/><path id="Stroke 42" d="M795.043 551.113C795.718 550.723 796.571 550.918 797.014 551.54L797.092 551.662L805.843 566.819C806.257 567.536 806.012 568.453 805.294 568.868C804.619 569.258 803.767 569.063 803.323 568.44L803.245 568.319L794.494 553.162C794.08 552.444 794.326 551.527 795.043 551.113Z" fill="#141313"/></g><path id="Stroke 44" d="M686.1 190.984C698.894 190.984 709.289 201.251 709.496 213.995L709.499 214.382V344.951C709.499 345.779 708.827 346.451 707.999 346.451C707.219 346.451 706.578 345.856 706.506 345.095L706.499 344.951V214.382C706.499 203.232 697.553 194.172 686.447 193.987L686.1 193.984H428.39C417.241 193.984 408.18 202.929 407.995 214.034L407.992 214.382V297.218C407.992 298.046 407.32 298.718 406.492 298.718C405.712 298.718 405.071 298.123 404.999 297.362L404.992 297.218V214.382C404.992 201.589 415.259 191.194 428.003 190.987L428.39 190.984H686.1Z" fill="#141313"/><path id="Stroke 46" d="M576.635 220.984C577.463 220.984 578.135 221.655 578.135 222.484C578.135 223.264 577.54 223.904 576.779 223.977L576.635 223.984H537.856C537.027 223.984 536.356 223.312 536.356 222.484C536.356 221.704 536.951 221.063 537.711 220.991L537.856 220.984H576.635Z" fill="#141313"/><path id="Stroke 48" d="M707.998 591.192C708.778 591.192 709.419 591.787 709.492 592.547L709.498 592.692V772.638C709.498 785.431 699.231 795.826 686.487 796.033L686.1 796.036H428.39C415.597 796.036 405.201 785.768 404.995 773.025L404.991 772.638V673.812C404.991 672.983 405.663 672.312 406.491 672.312C407.271 672.312 407.912 672.907 407.985 673.667L407.991 673.812V772.638C407.991 783.787 416.937 792.847 428.043 793.033L428.39 793.036H686.1C697.25 793.036 706.31 784.091 706.496 772.985L706.498 772.638V592.692C706.498 591.863 707.17 591.192 707.998 591.192Z" fill="#141313"/><path id="Stroke 50" d="M576.635 763.039C577.463 763.039 578.135 763.711 578.135 764.539C578.135 765.319 577.54 765.96 576.779 766.032L576.635 766.039H537.856C537.027 766.039 536.356 765.367 536.356 764.539C536.356 763.759 536.951 763.119 537.711 763.046L537.856 763.039H576.635Z" fill="#141313"/><path id="Stroke 52" d="M707.625 423.815C708.404 423.815 709.045 424.41 709.118 425.17L709.125 425.315V467.127C709.125 467.955 708.453 468.627 707.625 468.627C706.845 468.627 706.204 468.032 706.131 467.271L706.125 467.127V425.315C706.125 424.486 706.796 423.815 707.625 423.815Z" fill="#141313"/><path id="Fill 65" fill-rule="evenodd" clip-rule="evenodd" d="M784.87 720.737C795.524 730.363 796.359 746.803 786.733 757.459C777.107 768.114 760.667 768.949 750.012 759.323C739.356 749.697 738.521 733.256 748.147 722.6C757.773 711.945 774.215 711.111 784.87 720.737" fill="#141313"/><path id="Fill 66" fill-rule="evenodd" clip-rule="evenodd" d="M782.477 660.317C787.857 665.177 788.278 673.478 783.417 678.859C778.557 684.239 770.256 684.66 764.875 679.799C759.496 674.939 759.075 666.637 763.935 661.257C768.795 655.878 777.096 655.457 782.477 660.317" fill="#141313"/><path id="Fill 67" fill-rule="evenodd" clip-rule="evenodd" d="M844.017 714.127C849.397 718.987 849.819 727.289 844.958 732.669C840.098 738.049 831.796 738.471 826.416 733.61C821.036 728.75 820.615 720.448 825.475 715.068C830.335 709.689 838.637 709.267 844.017 714.127" fill="#141313"/><path id="Stroke 68" d="M773.705 668.058L773.854 668.066C774.904 668.159 775.692 669.049 775.676 670.086L775.668 670.235L769.68 737.44L834.752 721.924C835.778 721.68 836.807 722.273 837.122 723.262L837.162 723.406C837.406 724.431 836.813 725.461 835.824 725.775L835.68 725.815L767.905 741.975C766.624 742.281 765.417 741.288 765.441 739.997L765.449 739.852L771.684 669.88C771.778 668.83 772.667 668.042 773.705 668.058Z" fill="#141313"/><path id="Fill 69" fill-rule="evenodd" clip-rule="evenodd" d="M399.952 394.468C391.367 402.465 392.174 416.79 400.707 424.527C413.073 435.739 436.154 427.496 439.168 411.135C439.264 410.607 439.338 410.074 439.387 409.539C440.192 400.634 434.416 392.326 435.709 383.465C436.12 380.646 437.919 378.256 439.61 375.963C443.391 370.84 448.662 363.639 447.431 356.878C446.763 353.199 444.144 350.198 441.398 347.661C437.807 344.343 428.945 337.532 434.445 331.975C435.279 331.133 436.446 330.524 437.597 330.259C438.548 330.04 439.594 330.104 440.431 330.603C443.182 332.243 443.888 335.536 447.672 335.646C449.607 335.702 451.546 334.777 452.72 333.237C454.514 330.884 454.376 327.58 453.639 324.714C453.23 323.124 452.66 321.472 453.062 319.88C453.691 317.396 456.521 316.039 459.083 316.078C461.645 316.118 464.06 317.182 466.51 317.935C473.322 320.03 481.073 319.643 487.167 315.946C490.389 313.992 493.223 310.827 493.4 307.064C493.551 303.856 491.749 300.86 489.56 298.511C483.913 292.451 475.59 289.497 467.361 288.545C459.263 287.609 450.905 288.436 443.323 291.431C435.742 294.427 428.974 299.646 424.57 306.506C420.858 312.286 418.965 319.076 418.599 325.905C418.227 332.87 419.891 339.425 421.086 346.206C422.056 351.718 419.874 357.939 415.96 361.853C412.985 364.827 409.419 367.149 406.365 370.043C403.162 373.078 400.558 376.99 400.316 381.515C400.146 384.697 401.599 386.41 402.644 389.165C403.491 391.397 401.565 392.992 400.095 394.336C400.047 394.38 399.999 394.424 399.952 394.468" fill="#141313"/><path id="Stroke 70" d="M487.82 313.837C488.628 313.657 489.43 314.167 489.609 314.976C491.357 322.845 491.84 330.142 491.46 336.993C490.797 349.551 488.713 358.588 482.188 368.082C480.15 371.044 478.119 373.285 476.134 374.922C474.764 376.052 473.687 376.704 472.556 377.234C468.511 379.096 464.125 379.426 459.627 378.607C456.657 378.067 454.19 377.171 451.901 376.074C451.154 375.716 450.838 374.82 451.196 374.073C451.554 373.326 452.45 373.011 453.197 373.369C455.266 374.36 457.499 375.171 460.164 375.656C464.098 376.372 467.871 376.088 471.293 374.513C472.201 374.088 473.067 373.563 474.225 372.608C475.991 371.152 477.834 369.118 479.716 366.383C485.852 357.454 487.828 348.888 488.464 336.831C488.83 330.236 488.365 323.211 486.681 315.627C486.501 314.818 487.011 314.017 487.82 313.837Z" fill="#141313"/><path id="Stroke 71" d="M462.984 376.02C463.803 375.893 464.57 376.454 464.697 377.273C465.734 383.963 464.832 390.626 461.027 396.533C460.039 398.07 458.983 399.449 457.434 400.981C455.141 403.25 452.403 405.124 449.162 406.422C445.925 407.708 442.636 408.248 439.403 408.181C438.574 408.164 437.917 407.479 437.934 406.651C437.951 405.823 438.636 405.165 439.464 405.182C442.313 405.24 445.205 404.766 448.051 403.635C450.895 402.496 453.303 400.848 455.324 398.849C456.693 397.494 457.624 396.279 458.504 394.909C461.862 389.697 462.666 383.757 461.732 377.732C461.605 376.914 462.166 376.147 462.984 376.02Z" fill="#141313"/><path id="Stroke 72" d="M400.908 385.161C401.672 384.843 402.55 385.206 402.868 385.97C403.186 386.735 402.824 387.613 402.059 387.931C397.873 389.672 393.691 391.56 389.543 393.597C386.082 395.296 382.707 397.076 379.423 398.924C375.887 400.911 373.805 404.071 373.195 407.9C372.579 411.8 372.194 415.769 372.014 419.911L371.952 421.462C371.694 428.785 371.962 434.532 373.095 447.921L374.04 458.792C375.572 476.839 378.381 494.332 382.296 511.245C382.483 512.052 381.98 512.858 381.173 513.045C380.366 513.231 379.56 512.729 379.373 511.922C375.568 495.481 372.799 478.497 371.221 460.994L370.102 448.131C368.881 433.701 368.656 428.052 369.017 419.78C369.202 415.528 369.598 411.447 370.232 407.43C370.982 402.721 373.593 398.76 377.953 396.309C381.284 394.435 384.708 392.628 388.22 390.904C392.426 388.839 396.664 386.925 400.908 385.161Z" fill="#141313"/><path id="Stroke 73" d="M461.927 377.932C462.198 377.149 463.052 376.734 463.835 377.004L465.49 377.569C466.157 377.793 466.849 378.021 467.637 378.278L473.951 380.33C475.997 381.007 477.48 381.522 479.513 382.257L481.408 382.947C489.195 385.805 491.612 387.007 495.266 389.801C501.864 394.859 504.972 400.634 508.216 410.595C512.26 422.961 516.298 436.25 520.214 449.854L521.702 455.062C523.528 461.49 525.117 467.243 526.493 472.341L527.596 476.458L529.064 478.354C531.826 481.898 534.65 485.415 537.544 488.908L539.288 491C543.748 496.329 548.333 501.552 553.083 506.738C553.643 507.349 553.601 508.297 552.99 508.857C552.38 509.417 551.431 509.375 550.871 508.764C546.091 503.547 541.477 498.289 536.989 492.927C532.872 488.019 528.894 483.065 525.036 478.053C524.915 477.895 524.827 477.715 524.775 477.523L524.002 474.629C522.339 468.435 520.347 461.22 517.981 452.95C514.088 439.344 510.067 426.02 506.036 413.589L505.364 411.525C502.293 402.097 499.427 396.771 493.442 392.183L492.87 391.752C489.806 389.479 487.436 388.353 480.33 385.747L477.287 384.645C475.269 383.926 473.629 383.374 470.872 382.479L466.311 381.001C465.036 380.583 463.994 380.234 462.855 379.84C462.072 379.569 461.657 378.715 461.927 377.932Z" fill="#141313"/><path id="Stroke 74" d="M365.941 509.287C370.369 508.305 375.198 508.599 380.605 509.974C384.501 510.964 388.327 512.373 393.469 514.599L396.26 515.828L400.535 517.739C401.471 518.153 402.255 518.495 403 518.811L403.278 518.929C425.225 528.19 446.5 536.203 467.472 543.027C468.26 543.284 468.691 544.13 468.435 544.918C468.178 545.706 467.332 546.137 466.544 545.88C446.24 539.273 425.659 531.559 404.468 522.684L401.541 521.451C401.059 521.245 400.558 521.027 400.008 520.786L394.089 518.146L392.298 517.361C387.282 515.189 383.581 513.826 379.866 512.881C374.879 511.614 370.507 511.347 366.591 512.216C360.802 513.501 356.338 517.559 355.002 522.973C352.643 532.518 357.744 542.2 368.408 553.153C373.532 558.416 379.857 563.648 388.316 569.857L390.086 571.148C391.093 571.879 392.14 572.631 393.27 573.437L400.827 578.784C401.504 579.262 401.664 580.198 401.186 580.874C400.736 581.511 399.881 581.691 399.218 581.312L399.109 581.243C398.859 581.067 394.557 578.031 393.298 577.139L391.526 575.878C390.2 574.932 388.989 574.061 387.82 573.21L387.322 572.847C378.349 566.297 371.678 560.812 366.259 555.246C354.93 543.61 349.404 533.121 352.089 522.253C353.709 515.69 359.078 510.811 365.941 509.287Z" fill="#141313"/><path id="Fill 75" fill-rule="evenodd" clip-rule="evenodd" d="M372.79 604.32C366.28 599.441 364.772 588.948 370.703 582.981C373.959 579.705 379.485 578.888 383.901 578.674C389.37 578.41 395.098 580.129 400.566 579.8C406.149 579.465 411.249 576.943 416.82 576.54C419.686 576.333 422.682 576.529 425.226 577.867C427.29 578.954 428.919 580.721 430.286 582.614C431.087 583.723 432.963 586.514 431.707 587.84C431.209 588.365 430.366 589.358 429.652 589.24C426.169 588.664 422.743 588.018 419.123 587.286C415.684 586.591 412.209 586.059 408.688 585.827C404.07 585.523 398.053 585.701 395.423 590.171C392.547 595.062 395.572 600.591 400.023 603.216" fill="#141313"/><path id="Stroke 76" d="M406.423 452.29C407.251 452.253 407.952 452.893 407.99 453.721L409.633 489.864L470.267 521.012C470.828 521.3 471.144 521.905 471.071 522.521L471.048 522.663L468.475 534.55C468.317 535.28 467.649 535.776 466.917 535.73L466.779 535.715L417.937 528.158C417.118 528.032 416.557 527.265 416.684 526.446C416.803 525.676 417.489 525.134 418.252 525.178L418.396 525.193L465.841 532.534L467.871 523.154L407.489 492.136C407.011 491.89 406.7 491.407 406.676 490.87L404.993 453.857C404.955 453.03 405.596 452.328 406.423 452.29Z" fill="#141313"/><path id="Stroke 77" d="M468.106 522.078C468.245 521.311 468.944 520.787 469.706 520.851L469.849 520.87L487.29 524.033C487.453 524.063 487.61 524.119 487.755 524.2L487.894 524.288L503.454 535.402C504.128 535.884 504.285 536.821 503.803 537.495C503.35 538.129 502.493 538.305 501.832 537.922L501.711 537.844L486.423 526.924L469.314 523.822C468.547 523.683 468.022 522.983 468.086 522.222L468.106 522.078Z" fill="#141313"/><path id="Stroke 78" d="M465.542 533.915C465.707 533.153 466.424 532.653 467.183 532.743L467.325 532.766L485.072 536.604C485.355 536.666 485.614 536.807 485.817 537.011L485.914 537.118L494.812 547.935C495.338 548.574 495.246 549.52 494.606 550.046C494.006 550.539 493.138 550.489 492.598 549.954L492.495 549.84L483.927 539.426L466.691 535.699C465.929 535.534 465.428 534.817 465.518 534.058L465.542 533.915Z" fill="#141313"/><path id="Stroke 79" d="M606.205 492.561C607.461 492.23 608.493 493.533 607.939 494.663L607.876 494.779L586.583 530.504C586.159 531.216 585.238 531.449 584.526 531.025C583.856 530.625 583.611 529.786 583.938 529.096L584.006 528.968L603.419 496.396L523.735 517.389L492.601 565.949C492.279 566.451 491.694 566.71 491.113 566.622L490.968 566.593L442.164 554.18C440.756 553.821 440.647 551.898 441.933 551.351L442.071 551.299L484.501 537.532C485.289 537.277 486.135 537.708 486.391 538.496C486.632 539.238 486.264 540.031 485.562 540.335L485.427 540.386L447.932 552.551L490.659 563.418L521.524 515.278C521.698 515.007 521.954 514.8 522.253 514.687L522.405 514.638L606.205 492.561Z" fill="#141313"/><path id="Stroke 80" d="M571.958 544.583C572.763 544.387 573.574 544.881 573.77 545.686C573.955 546.443 573.528 547.206 572.807 547.457L572.668 547.498L493.036 566.899L432.556 587.562C431.818 587.814 431.019 587.458 430.704 586.762L430.651 586.628C430.399 585.89 430.755 585.091 431.451 584.776L431.586 584.723L492.121 564.041L492.251 564.003L571.958 544.583Z" fill="#141313"/><path id="Stroke 81" d="M490.74 447.861C490.74 446.096 493.218 445.807 493.677 447.427L493.712 447.575L502.36 492.122L530.09 513.21C530.711 513.682 530.861 514.543 530.458 515.193L530.376 515.312C529.905 515.932 529.043 516.082 528.394 515.68L528.275 515.598L500.089 494.164C499.837 493.973 499.654 493.708 499.562 493.408L499.524 493.256L493.739 463.46V492.74L504.014 525.658C504.247 526.402 503.87 527.191 503.165 527.487L503.029 527.537C502.285 527.769 501.496 527.392 501.2 526.688L501.151 526.552L490.808 493.417C490.778 493.32 490.757 493.221 490.747 493.121L490.74 492.97V447.861Z" fill="#141313"/><path id="Stroke 82" d="M550.398 549.867L550.542 549.869L551.721 549.945C564.73 550.86 572.655 553.959 579.109 562.114C581.861 565.587 583.782 569.061 584.671 573.85C585.879 580.352 584.297 586.71 580.774 592.687C579.513 594.827 578.072 596.791 576.547 598.557C575.544 599.72 574.67 600.611 573.967 601.261C573.359 601.824 572.41 601.787 571.847 601.179C571.285 600.571 571.322 599.622 571.93 599.059L572.288 598.72C572.849 598.177 573.52 597.473 574.276 596.597C575.69 594.96 577.025 593.139 578.19 591.163C581.374 585.762 582.781 580.104 581.722 574.398C580.94 570.188 579.233 567.101 576.757 563.976C570.745 556.379 563.309 553.629 550.365 552.864C549.538 552.815 548.907 552.105 548.956 551.278C549.002 550.499 549.634 549.895 550.398 549.867Z" fill="#141313"/><path id="Stroke 83" fill-rule="evenodd" clip-rule="evenodd" d="M568.069 538.94C568.069 532.26 573.484 526.846 580.163 526.846C586.842 526.846 592.256 532.26 592.256 538.94C592.256 545.619 586.843 551.033 580.163 551.033C573.484 551.033 568.069 545.619 568.069 538.94ZM589.256 538.94C589.256 533.917 585.186 529.846 580.163 529.846C575.141 529.846 571.069 533.917 571.069 538.94C571.069 543.962 575.14 548.033 580.163 548.033C585.186 548.033 589.256 543.962 589.256 538.94Z" fill="#141313"/><path id="Stroke 84" d="M442.535 551.226C443.314 551.226 443.955 551.82 444.028 552.581L444.035 552.726L444.034 558.914L481.976 567.748C482.735 567.924 483.224 568.649 483.123 569.406L483.096 569.549C482.92 570.308 482.195 570.797 481.438 570.696L481.295 570.67L442.194 561.567C441.56 561.419 441.1 560.882 441.041 560.244L441.035 560.106V552.726C441.035 551.897 441.706 551.226 442.535 551.226Z" fill="#141313"/><path id="Stroke 85" d="M573.13 547.186C573.507 546.448 574.411 546.156 575.148 546.532C575.843 546.887 576.143 547.708 575.862 548.419L575.802 548.551L573.429 553.197C573.259 553.528 572.973 553.784 572.629 553.915L572.478 553.964L566.27 555.61C565.469 555.822 564.648 555.345 564.435 554.545C564.235 553.791 564.646 553.019 565.363 552.754L565.501 552.71L571.061 551.236L573.13 547.186Z" fill="#141313"/><path id="Fill 86" fill-rule="evenodd" clip-rule="evenodd" d="M463.694 377.779C462.113 377.828 459.905 377.753 457.373 377.194C454.588 376.579 452.457 375.611 451.052 374.848C451.318 377.109 451.993 380.303 453.795 383.837C455.984 388.133 458.913 391.116 460.957 392.892C461.891 391.328 462.966 389.116 463.582 386.349C464.375 382.779 464.077 379.756 463.694 377.779" fill="#141313"/></g></g><g id="Element" transform="translate(132 393) scale(1 1)"><g id="Element/Shapes"><g id="Group"><path id="Fill 30" fill-rule="evenodd" clip-rule="evenodd" d="M254.279 329.88V402.849H-3C-0.783 400.4 18.96 372.366 44.421 372.366C70.146 372.366 83.55 388.413 105.09 371.502C112.538 365.655 123.984 357.485 133.215 357.485C142.125 357.485 150.486 361.472 158.989 364.11C167.97 366.899 176.425 366.838 185.356 363.556C192.539 360.916 199.28 356.832 205.996 352.802C221.374 343.572 237.259 333.857 254.279 329.88" fill="#141313"/><path id="Stroke 32" d="M194.259 279.29C217.496 279.29 236.33 298.13 236.33 321.37C236.33 344.61 217.496 363.45 194.259 363.45C180.959 363.45 168.693 357.241 160.786 346.869C160.284 346.21 160.411 345.269 161.07 344.767C161.729 344.265 162.67 344.391 163.172 345.05C170.517 354.686 181.905 360.45 194.259 360.45C215.839 360.45 233.33 342.953 233.33 321.37C233.33 299.786 215.839 282.29 194.259 282.29C174.66 282.29 158.17 296.795 155.545 316.023C155.433 316.843 154.677 317.418 153.856 317.306C153.035 317.194 152.461 316.438 152.573 315.617C155.4 294.908 173.155 279.29 194.259 279.29Z" fill="#141313"/><path id="Stroke 34" d="M33.7994 335.477C33.983 334.781 34.6318 334.32 35.3375 334.362L35.4793 334.377L54.7287 337.358L80.8887 341.397C81.7074 341.524 82.2686 342.29 82.1422 343.109C82.0232 343.879 81.3375 344.422 80.5747 344.377L80.4309 344.362L54.2702 340.323L36.356 337.548L24.08 384.093L21.15 395.184C20.9384 395.985 20.1176 396.462 19.3166 396.251C18.5628 396.052 18.0953 395.313 18.2193 394.559L18.2495 394.418L21.1794 383.327L33.7994 335.477Z" fill="#141313"/><path id="Stroke 36" d="M86.9633 235.82C87.4354 235.45 88.0779 235.399 88.5983 235.678L88.7256 235.755L146.636 274.665C147.133 274.999 147.38 275.595 147.275 276.176L147.242 276.321L135.882 316.231C135.655 317.027 134.825 317.489 134.028 317.263C133.279 317.049 132.825 316.302 132.963 315.55L132.996 315.409L144.058 276.547L87.956 238.853L34.773 280.567L55.604 337.493L80.889 341.398C81.6595 341.517 82.202 342.202 82.1578 342.965L82.1425 343.109C82.0235 343.879 81.3379 344.422 80.575 344.378L80.4312 344.362L54.2712 340.323C53.7803 340.248 53.3621 339.935 53.1491 339.493L53.0914 339.356L31.5814 280.575C31.3753 280.012 31.5256 279.386 31.952 278.977L32.0643 278.88L86.9633 235.82Z" fill="#141313"/><path id="Stroke 38" fill-rule="evenodd" clip-rule="evenodd" d="M80.6606 314.317H161.979C162.807 314.317 163.479 314.988 163.479 315.817V386.431C163.479 387.259 162.807 387.931 161.979 387.931H80.6606C79.8322 387.931 79.1606 387.259 79.1606 386.431V315.817C79.1606 314.988 79.8322 314.317 80.6606 314.317ZM160.478 384.93V317.316H82.16V384.93H160.478Z" fill="#141313"/></g></g></g></g></svg>